<svg id="visual" viewBox="0 0 1920 1080" width="1920" height="1080" xmlns="http://www.w3.org/2000/svg" xmlns:xlink="http://www.w3.org/1999/xlink" version="1.1"><g stroke-width="1" stroke-linejoin="bevel"><path d="M953 566L780 713L943 696Z" fill="#a40056" stroke="#4c4949"></path><path d="M953 566L740 540L780 713Z" fill="#db0e0e" stroke="#4c4949"></path><path d="M953 566L931 367L740 540Z" fill="#04192f" stroke="#4c4949"></path><path d="M931 367L754 369L740 540Z" fill="#bd0046" stroke="#4c4949"></path><path d="M573 525L589 714L740 540Z" fill="#04192f" stroke="#4c4949"></path><path d="M740 540L589 714L780 713Z" fill="#04192f" stroke="#4c4949"></path><path d="M791 927L970 879L780 713Z" fill="#2a2252" stroke="#4c4949"></path><path d="M780 713L970 879L943 696Z" fill="#bd0046" stroke="#4c4949"></path><path d="M943 696L1148 554L953 566Z" fill="#47215d" stroke="#4c4949"></path><path d="M573 384L573 525L740 540Z" fill="#47215d" stroke="#4c4949"></path><path d="M1162 745L1148 554L943 696Z" fill="#a40056" stroke="#4c4949"></path><path d="M953 566L1148 554L931 367Z" fill="#111f42" stroke="#4c4949"></path><path d="M589 901L791 927L780 713Z" fill="#d00030" stroke="#4c4949"></path><path d="M970 879L1162 745L943 696Z" fill="#bd0046" stroke="#4c4949"></path><path d="M754 369L573 384L740 540Z" fill="#87015f" stroke="#4c4949"></path><path d="M589 714L589 901L780 713Z" fill="#47215d" stroke="#4c4949"></path><path d="M367 737L589 901L589 714Z" fill="#a40056" stroke="#4c4949"></path><path d="M1308 536L1185 349L1148 554Z" fill="#04192f" stroke="#4c4949"></path><path d="M1148 554L1185 349L931 367Z" fill="#04192f" stroke="#4c4949"></path><path d="M931 367L759 198L754 369Z" fill="#111f42" stroke="#4c4949"></path><path d="M970 879L1177 911L1162 745Z" fill="#671962" stroke="#4c4949"></path><path d="M1162 745L1308 536L1148 554Z" fill="#671962" stroke="#4c4949"></path><path d="M990 1080L1177 911L970 879Z" fill="#111f42" stroke="#4c4949"></path><path d="M1185 349L976 208L931 367Z" fill="#d00030" stroke="#4c4949"></path><path d="M754 369L605 213L573 384Z" fill="#87015f" stroke="#4c4949"></path><path d="M976 208L759 198L931 367Z" fill="#47215d" stroke="#4c4949"></path><path d="M1375 706L1308 536L1162 745Z" fill="#d00030" stroke="#4c4949"></path><path d="M589 901L742 1080L791 927Z" fill="#87015f" stroke="#4c4949"></path><path d="M791 927L990 1080L970 879Z" fill="#bd0046" stroke="#4c4949"></path><path d="M742 1080L990 1080L791 927Z" fill="#671962" stroke="#4c4949"></path><path d="M759 198L605 213L754 369Z" fill="#00101c" stroke="#4c4949"></path><path d="M388 369L359 564L573 525Z" fill="#87015f" stroke="#4c4949"></path><path d="M573 525L359 564L589 714Z" fill="#d00030" stroke="#4c4949"></path><path d="M388 369L573 525L573 384Z" fill="#bd0046" stroke="#4c4949"></path><path d="M359 564L367 737L589 714Z" fill="#db0e0e" stroke="#4c4949"></path><path d="M589 901L568 1080L742 1080Z" fill="#2a2252" stroke="#4c4949"></path><path d="M1351 927L1375 706L1162 745Z" fill="#111f42" stroke="#4c4949"></path><path d="M605 213L388 369L573 384Z" fill="#bd0046" stroke="#4c4949"></path><path d="M376 913L568 1080L589 901Z" fill="#87015f" stroke="#4c4949"></path><path d="M1308 536L1316 336L1185 349Z" fill="#671962" stroke="#4c4949"></path><path d="M1185 349L1174 150L976 208Z" fill="#671962" stroke="#4c4949"></path><path d="M1538 351L1316 336L1308 536Z" fill="#87015f" stroke="#4c4949"></path><path d="M367 737L376 913L589 901Z" fill="#47215d" stroke="#4c4949"></path><path d="M990 1080L1176 1080L1177 911Z" fill="#2a2252" stroke="#4c4949"></path><path d="M1177 911L1351 927L1162 745Z" fill="#00101c" stroke="#4c4949"></path><path d="M1319 162L1174 150L1185 349Z" fill="#47215d" stroke="#4c4949"></path><path d="M976 208L778 0L759 198Z" fill="#87015f" stroke="#4c4949"></path><path d="M759 198L568 0L605 213Z" fill="#671962" stroke="#4c4949"></path><path d="M1176 1080L1351 927L1177 911Z" fill="#bd0046" stroke="#4c4949"></path><path d="M977 0L778 0L976 208Z" fill="#111f42" stroke="#4c4949"></path><path d="M605 213L394 147L388 369Z" fill="#db0e0e" stroke="#4c4949"></path><path d="M1174 150L977 0L976 208Z" fill="#00101c" stroke="#4c4949"></path><path d="M376 913L403 1080L568 1080Z" fill="#2a2252" stroke="#4c4949"></path><path d="M1316 336L1319 162L1185 349Z" fill="#00101c" stroke="#4c4949"></path><path d="M1174 150L1165 0L977 0Z" fill="#04192f" stroke="#4c4949"></path><path d="M1509 176L1319 162L1316 336Z" fill="#d00030" stroke="#4c4949"></path><path d="M568 0L394 147L605 213Z" fill="#671962" stroke="#4c4949"></path><path d="M204 335L179 562L359 564Z" fill="#00101c" stroke="#4c4949"></path><path d="M204 335L359 564L388 369Z" fill="#04192f" stroke="#4c4949"></path><path d="M359 564L167 720L367 737Z" fill="#671962" stroke="#4c4949"></path><path d="M367 737L198 935L376 913Z" fill="#d00030" stroke="#4c4949"></path><path d="M376 913L198 935L403 1080Z" fill="#a40056" stroke="#4c4949"></path><path d="M778 0L568 0L759 198Z" fill="#d00030" stroke="#4c4949"></path><path d="M1176 1080L1369 1080L1351 927Z" fill="#d00030" stroke="#4c4949"></path><path d="M1566 689L1556 533L1375 706Z" fill="#00101c" stroke="#4c4949"></path><path d="M179 562L167 720L359 564Z" fill="#111f42" stroke="#4c4949"></path><path d="M1324 0L1165 0L1174 150Z" fill="#47215d" stroke="#4c4949"></path><path d="M1566 689L1375 706L1537 900Z" fill="#111f42" stroke="#4c4949"></path><path d="M1375 706L1556 533L1308 536Z" fill="#a40056" stroke="#4c4949"></path><path d="M194 196L204 335L388 369Z" fill="#db0e0e" stroke="#4c4949"></path><path d="M1537 900L1375 706L1351 927Z" fill="#111f42" stroke="#4c4949"></path><path d="M167 720L198 935L367 737Z" fill="#47215d" stroke="#4c4949"></path><path d="M1556 533L1538 351L1308 536Z" fill="#bd0046" stroke="#4c4949"></path><path d="M1319 162L1324 0L1174 150Z" fill="#a40056" stroke="#4c4949"></path><path d="M1369 1080L1537 900L1351 927Z" fill="#2a2252" stroke="#4c4949"></path><path d="M1509 176L1324 0L1319 162Z" fill="#d00030" stroke="#4c4949"></path><path d="M394 147L194 196L388 369Z" fill="#d00030" stroke="#4c4949"></path><path d="M0 512L0 710L179 562Z" fill="#47215d" stroke="#4c4949"></path><path d="M179 562L0 710L167 720Z" fill="#d00030" stroke="#4c4949"></path><path d="M374 0L194 196L394 147Z" fill="#671962" stroke="#4c4949"></path><path d="M568 0L374 0L394 147Z" fill="#671962" stroke="#4c4949"></path><path d="M1538 351L1509 176L1316 336Z" fill="#db0e0e" stroke="#4c4949"></path><path d="M0 925L185 1080L198 935Z" fill="#db0e0e" stroke="#4c4949"></path><path d="M198 935L185 1080L403 1080Z" fill="#00101c" stroke="#4c4949"></path><path d="M1369 1080L1548 1080L1537 900Z" fill="#d00030" stroke="#4c4949"></path><path d="M1735 572L1556 533L1566 689Z" fill="#87015f" stroke="#4c4949"></path><path d="M0 512L179 562L204 335Z" fill="#04192f" stroke="#4c4949"></path><path d="M167 720L0 925L198 935Z" fill="#87015f" stroke="#4c4949"></path><path d="M0 342L0 512L204 335Z" fill="#04192f" stroke="#4c4949"></path><path d="M1735 572L1704 388L1556 533Z" fill="#bd0046" stroke="#4c4949"></path><path d="M1556 533L1704 388L1538 351Z" fill="#04192f" stroke="#4c4949"></path><path d="M1538 351L1743 204L1509 176Z" fill="#47215d" stroke="#4c4949"></path><path d="M1735 572L1566 689L1748 697Z" fill="#db0e0e" stroke="#4c4949"></path><path d="M1748 697L1566 689L1708 935Z" fill="#47215d" stroke="#4c4949"></path><path d="M1708 935L1566 689L1537 900Z" fill="#04192f" stroke="#4c4949"></path><path d="M0 152L0 342L194 196Z" fill="#671962" stroke="#4c4949"></path><path d="M194 196L0 342L204 335Z" fill="#671962" stroke="#4c4949"></path><path d="M0 710L0 925L167 720Z" fill="#04192f" stroke="#4c4949"></path><path d="M1548 1080L1708 935L1537 900Z" fill="#87015f" stroke="#4c4949"></path><path d="M374 0L173 0L194 196Z" fill="#671962" stroke="#4c4949"></path><path d="M1728 0L1539 0L1509 176Z" fill="#671962" stroke="#4c4949"></path><path d="M1509 176L1539 0L1324 0Z" fill="#87015f" stroke="#4c4949"></path><path d="M1548 1080L1699 1080L1708 935Z" fill="#87015f" stroke="#4c4949"></path><path d="M1920 701L1920 554L1748 697Z" fill="#111f42" stroke="#4c4949"></path><path d="M0 925L0 1080L185 1080Z" fill="#04192f" stroke="#4c4949"></path><path d="M173 0L0 152L194 196Z" fill="#111f42" stroke="#4c4949"></path><path d="M1704 388L1743 204L1538 351Z" fill="#04192f" stroke="#4c4949"></path><path d="M1920 330L1743 204L1704 388Z" fill="#671962" stroke="#4c4949"></path><path d="M1920 554L1704 388L1735 572Z" fill="#00101c" stroke="#4c4949"></path><path d="M173 0L0 0L0 152Z" fill="#2a2252" stroke="#4c4949"></path><path d="M1920 701L1748 697L1920 907Z" fill="#a40056" stroke="#4c4949"></path><path d="M1748 697L1920 554L1735 572Z" fill="#2a2252" stroke="#4c4949"></path><path d="M1920 907L1748 697L1708 935Z" fill="#a40056" stroke="#4c4949"></path><path d="M1920 169L1728 0L1743 204Z" fill="#db0e0e" stroke="#4c4949"></path><path d="M1743 204L1728 0L1509 176Z" fill="#2a2252" stroke="#4c4949"></path><path d="M1920 1080L1920 907L1708 935Z" fill="#04192f" stroke="#4c4949"></path><path d="M1920 554L1920 330L1704 388Z" fill="#bd0046" stroke="#4c4949"></path><path d="M1920 330L1920 169L1743 204Z" fill="#a40056" stroke="#4c4949"></path><path d="M1699 1080L1920 1080L1708 935Z" fill="#47215d" stroke="#4c4949"></path><path d="M1920 169L1920 0L1728 0Z" fill="#47215d" stroke="#4c4949"></path></g></svg>